<svg width="160" height="160" viewBox="0 0 160 160" fill="none" xmlns="http://www.w3.org/2000/svg">
<path d="M33.25 88.625C29.7452 84.4978 27.3948 79.5167 26.4375 74.1875C25.1678 66.9786 26.5775 59.5542 30.4012 53.3124C34.2249 47.0707 40.1987 42.4423 47.1977 40.2988C54.1967 38.1553 61.7379 38.6446 68.4012 41.6747C75.0644 44.7047 80.39 50.0664 83.375 56.75" fill="#FFCC00"/>
<path d="M33.25 88.625C29.7452 84.4978 27.3948 79.5167 26.4375 74.1875C25.1678 66.9786 26.5775 59.5542 30.4012 53.3124C34.2249 47.0707 40.1987 42.4423 47.1977 40.2988C54.1967 38.1553 61.7379 38.6446 68.4012 41.6747C75.0644 44.7047 80.39 50.0664 83.375 56.75" stroke="#FFCC00" stroke-width="10" stroke-linecap="round" stroke-linejoin="round"/>
<path d="M55 92.5C55 84.0943 57.4926 75.8774 62.1625 68.8883C66.8325 61.8992 73.4701 56.4519 81.236 53.2351C89.0018 50.0184 97.5471 49.1768 105.791 50.8166C114.036 52.4565 121.608 56.5042 127.552 62.448C133.496 68.3917 137.544 75.9645 139.183 84.2087C140.823 92.4529 139.982 100.998 136.765 108.764C133.548 116.53 128.101 123.168 121.112 127.837C114.123 132.507 105.906 135 97.5 135H47.5C40.2065 135 33.2118 132.103 28.0546 126.945C22.8973 121.788 20 114.793 20 107.5C20 100.207 22.8973 93.2118 28.0546 88.0546C33.2118 82.8973 40.2065 80 47.5 80C50.5431 79.9844 53.5663 80.4917 56.4375 81.5" fill="#FAFAFC"/>
<path d="M55 92.5C55 84.0943 57.4926 75.8774 62.1625 68.8883C66.8325 61.8992 73.4701 56.4519 81.236 53.2351C89.0018 50.0184 97.5471 49.1768 105.791 50.8166C114.036 52.4565 121.608 56.5042 127.552 62.448C133.496 68.3917 137.544 75.9645 139.183 84.2087C140.823 92.4529 139.982 100.998 136.765 108.764C133.548 116.53 128.101 123.168 121.112 127.837C114.123 132.507 105.906 135 97.5 135H47.5C40.2065 135 33.2118 132.103 28.0546 126.945C22.8973 121.788 20 114.793 20 107.5C20 100.207 22.8973 93.2118 28.0546 88.0546C33.2118 82.8973 40.2065 80 47.5 80C50.5431 79.9844 53.5663 80.4917 56.4375 81.5" stroke="#FAFAFC" stroke-width="10" stroke-linecap="round" stroke-linejoin="round"/>
</svg>
