<svg width="64" height="64" viewBox="0 0 64 64" fill="none" xmlns="http://www.w3.org/2000/svg">
<path d="M13.3 35.45C11.8981 33.7991 10.9579 31.8067 10.575 29.675C10.0671 26.7914 10.631 23.8217 12.1605 21.325C13.69 18.8283 16.0795 16.9769 18.8791 16.1195C21.6787 15.2621 24.6952 15.4579 27.3605 16.6699C30.0258 17.8819 32.156 20.0266 33.35 22.7" fill="#FFCC00"/>
<path d="M13.3 35.45C11.8981 33.7991 10.9579 31.8067 10.575 29.675C10.0671 26.7914 10.631 23.8217 12.1605 21.325C13.69 18.8283 16.0795 16.9769 18.8791 16.1195C21.6787 15.2621 24.6952 15.4579 27.3605 16.6699C30.0258 17.8819 32.156 20.0266 33.35 22.7" stroke="#FFCC00" stroke-width="4" stroke-linecap="round" stroke-linejoin="round"/>
<path d="M22 37C22 33.6377 22.997 30.3509 24.865 27.5553C26.733 24.7597 29.388 22.5807 32.4944 21.2941C35.6007 20.0074 39.0189 19.6707 42.3165 20.3267C45.6142 20.9826 48.6433 22.6017 51.0208 24.9792C53.3983 27.3567 55.0174 30.3858 55.6734 33.6835C56.3293 36.9811 55.9926 40.3993 54.706 43.5056C53.4193 46.612 51.2403 49.267 48.4447 51.135C45.6491 53.003 42.3623 54 39 54H19C16.0826 54 13.2847 52.8411 11.2218 50.7782C9.15893 48.7153 8 45.9174 8 43C8 40.0826 9.15893 37.2847 11.2218 35.2218C13.2847 33.1589 16.0826 32 19 32C20.2172 31.9937 21.4265 32.1967 22.575 32.6" fill="#FAFAFC"/>
<path d="M22 37C22 33.6377 22.997 30.3509 24.865 27.5553C26.733 24.7597 29.388 22.5807 32.4944 21.2941C35.6007 20.0074 39.0189 19.6707 42.3165 20.3267C45.6142 20.9826 48.6433 22.6017 51.0208 24.9792C53.3983 27.3567 55.0174 30.3858 55.6734 33.6835C56.3293 36.9811 55.9926 40.3993 54.706 43.5056C53.4193 46.612 51.2403 49.267 48.4447 51.135C45.6491 53.003 42.3623 54 39 54H19C16.0826 54 13.2847 52.8411 11.2218 50.7782C9.15893 48.7153 8 45.9174 8 43C8 40.0826 9.15893 37.2847 11.2218 35.2218C13.2847 33.1589 16.0826 32 19 32C20.2172 31.9937 21.4265 32.1967 22.575 32.6" stroke="#FAFAFC" stroke-width="4" stroke-linecap="round" stroke-linejoin="round"/>
</svg>
