<svg width="64" height="64" viewBox="0 0 64 64" fill="none" xmlns="http://www.w3.org/2000/svg">
<g clip-path="url(#clip0_11_1848)">
<path d="M30 50H18" stroke="#FAFAFC" stroke-width="6" stroke-linecap="round" stroke-linejoin="round"/>
<path d="M30 50H18" stroke="black" stroke-opacity="0.2" stroke-width="6" stroke-linecap="round" stroke-linejoin="round"/>
<path d="M46 50H40" stroke="#FAFAFC" stroke-width="6" stroke-linecap="round" stroke-linejoin="round"/>
<path d="M46 50H40" stroke="black" stroke-opacity="0.2" stroke-width="6" stroke-linecap="round" stroke-linejoin="round"/>
<path d="M40 60H26" stroke="#FAFAFC" stroke-width="6" stroke-linecap="round" stroke-linejoin="round"/>
<path d="M40 60H26" stroke="black" stroke-opacity="0.2" stroke-width="6" stroke-linecap="round" stroke-linejoin="round"/>
<path d="M22 23C22 19.6377 22.997 16.3509 24.865 13.5553C26.733 10.7597 29.388 8.58075 32.4944 7.29406C35.6007 6.00737 39.0189 5.67071 42.3165 6.32666C45.6142 6.98261 48.6433 8.6017 51.0208 10.9792C53.3983 13.3567 55.0174 16.3858 55.6733 19.6835C56.3293 22.9811 55.9926 26.3993 54.7059 29.5056C53.4193 32.612 51.2403 35.267 48.4447 37.135C45.6491 39.003 42.3623 40 39 40H19C16.0826 40 13.2847 38.8411 11.2218 36.7782C9.15893 34.7153 8 31.9174 8 29C8 26.0826 9.15893 23.2847 11.2218 21.2218C13.2847 19.1589 16.0826 18 19 18C20.2172 17.9937 21.4265 18.1967 22.575 18.6" fill="#FAFAFC"/>
<path d="M22 23C22 19.6377 22.997 16.3509 24.865 13.5553C26.733 10.7597 29.388 8.58075 32.4944 7.29406C35.6007 6.00737 39.0189 5.67071 42.3165 6.32666C45.6142 6.98261 48.6433 8.6017 51.0208 10.9792C53.3983 13.3567 55.0174 16.3858 55.6733 19.6835C56.3293 22.9811 55.9926 26.3993 54.7059 29.5056C53.4193 32.612 51.2403 35.267 48.4447 37.135C45.6491 39.003 42.3623 40 39 40H19C16.0826 40 13.2847 38.8411 11.2218 36.7782C9.15893 34.7153 8 31.9174 8 29C8 26.0826 9.15893 23.2847 11.2218 21.2218C13.2847 19.1589 16.0826 18 19 18C20.2172 17.9937 21.4265 18.1967 22.575 18.6" stroke="#FAFAFC" stroke-width="6" stroke-linecap="round" stroke-linejoin="round"/>
</g>
<defs>
<clipPath id="clip0_11_1848">
<rect width="64" height="64" fill="white"/>
</clipPath>
</defs>
</svg>
