<svg width="64" height="64" viewBox="0 0 64 64" fill="none" xmlns="http://www.w3.org/2000/svg">
<g clip-path="url(#clip0_11_1854)">
<path d="M22 24C22 20.6377 22.997 17.351 24.865 14.5553C26.733 11.7597 29.388 9.58075 32.4944 8.29406C35.6007 7.00737 39.0189 6.67071 42.3165 7.32666C45.6142 7.98261 48.6433 9.6017 51.0208 11.9792C53.3983 14.3567 55.0174 17.3858 55.6734 20.6835C56.3293 23.9811 55.9926 27.3993 54.706 30.5056C53.4193 33.612 51.2403 36.267 48.4447 38.135C45.6491 40.003 42.3623 41 39 41H19C16.0826 41 13.2847 39.8411 11.2218 37.7782C9.15893 35.7153 8 32.9174 8 30C8 27.0826 9.15893 24.2847 11.2218 22.2218C13.2847 20.1589 16.0826 19 19 19C20.2172 18.9937 21.4265 19.1967 22.575 19.6" fill="#FAFAFC"/>
<path d="M22 24C22 20.6377 22.997 17.3509 24.865 14.5553C26.733 11.7597 29.388 9.58075 32.4944 8.29406C35.6007 7.00737 39.0189 6.67071 42.3165 7.32666C45.6142 7.98261 48.6433 9.6017 51.0208 11.9792C53.3983 14.3567 55.0174 17.3858 55.6734 20.6835C56.3293 23.9811 55.9926 27.3993 54.706 30.5056C53.4193 33.612 51.2403 36.267 48.4447 38.135C45.6491 40.003 42.3623 41 39 41H19C16.0826 41 13.2847 39.8411 11.2218 37.7782C9.15893 35.7153 8 32.9174 8 30C8 27.0826 9.15893 24.2847 11.2218 22.2218C13.2847 20.1589 16.0826 19 19 19C20.2172 18.9937 21.4265 19.1967 22.575 19.6" stroke="#FAFAFC" stroke-width="6" stroke-linecap="round" stroke-linejoin="round"/>
<path d="M40 58C42.2091 58 44 56.2091 44 54C44 51.7909 42.2091 50 40 50C37.7909 50 36 51.7909 36 54C36 56.2091 37.7909 58 40 58Z" fill="#9DBFF9"/>
<path d="M28 58C30.2091 58 32 56.2091 32 54C32 51.7909 30.2091 50 28 50C25.7909 50 24 51.7909 24 54C24 56.2091 25.7909 58 28 58Z" fill="#9DBFF9"/>
<path d="M16 58C18.2091 58 20 56.2091 20 54C20 51.7909 18.2091 50 16 50C13.7909 50 12 51.7909 12 54C12 56.2091 13.7909 58 16 58Z" fill="#9DBFF9"/>
</g>
<defs>
<clipPath id="clip0_11_1854">
<rect width="64" height="64" fill="white"/>
</clipPath>
</defs>
</svg>
