<svg width="160" height="160" viewBox="0 0 160 160" fill="none" xmlns="http://www.w3.org/2000/svg">
<g clip-path="url(#clip0_11_1535)">
<path d="M55 60C55 51.5943 57.4926 43.3774 62.1625 36.3883C66.8325 29.3992 73.4701 23.9519 81.236 20.7351C89.0018 17.5184 97.5471 16.6768 105.791 18.3166C114.036 19.9565 121.608 24.0043 127.552 29.948C133.496 35.8917 137.544 43.4645 139.183 51.7087C140.823 59.9529 139.982 68.4982 136.765 76.2641C133.548 84.0299 128.101 90.6675 121.112 95.3375C114.123 100.007 105.906 102.5 97.5 102.5H47.5C40.2065 102.5 33.2118 99.6027 28.0546 94.4455C22.8973 89.2882 20 82.2935 20 75C20 67.7066 22.8973 60.7118 28.0546 55.5546C33.2118 50.3973 40.2065 47.5 47.5 47.5C50.5431 47.4844 53.5663 47.9917 56.4375 49" fill="#FAFAFC"/>
<path d="M55 60C55 51.5943 57.4926 43.3774 62.1625 36.3883C66.8325 29.3992 73.4701 23.9519 81.236 20.7351C89.0018 17.5184 97.5471 16.6768 105.791 18.3166C114.036 19.9565 121.608 24.0043 127.552 29.948C133.496 35.8917 137.544 43.4645 139.183 51.7087C140.823 59.9529 139.982 68.4982 136.765 76.2641C133.548 84.0299 128.101 90.6675 121.112 95.3375C114.123 100.007 105.906 102.5 97.5 102.5H47.5C40.2065 102.5 33.2118 99.6027 28.0546 94.4455C22.8973 89.2882 20 82.2935 20 75C20 67.7066 22.8973 60.7118 28.0546 55.5546C33.2118 50.3973 40.2065 47.5 47.5 47.5C50.5431 47.4844 53.5663 47.9917 56.4375 49" stroke="#FAFAFC" stroke-width="15" stroke-linecap="round" stroke-linejoin="round"/>
<path d="M100 145C105.523 145 110 140.523 110 135C110 129.477 105.523 125 100 125C94.4772 125 90 129.477 90 135C90 140.523 94.4772 145 100 145Z" fill="#9DBFF9"/>
<path d="M70 145C75.5228 145 80 140.523 80 135C80 129.477 75.5228 125 70 125C64.4772 125 60 129.477 60 135C60 140.523 64.4772 145 70 145Z" fill="#9DBFF9"/>
<path d="M40 145C45.5228 145 50 140.523 50 135C50 129.477 45.5228 125 40 125C34.4772 125 30 129.477 30 135C30 140.523 34.4772 145 40 145Z" fill="#9DBFF9"/>
</g>
<defs>
<clipPath id="clip0_11_1535">
<rect width="160" height="160" fill="white"/>
</clipPath>
</defs>
</svg>
