<svg width="65" height="65" viewBox="0 0 65 65" fill="none" xmlns="http://www.w3.org/2000/svg">
<path d="M32.5 60.9375L39.1777 50.7812H26.4062L33.084 40.625" stroke="#9DBFF9" stroke-width="6.09375" stroke-linecap="round" stroke-linejoin="round"/>
<path d="M22.3438 23.3594C22.3438 19.9446 23.3564 16.6064 25.2535 13.7671C27.1507 10.9278 29.8472 8.71482 33.0021 7.40803C36.157 6.10123 39.6285 5.75931 42.9777 6.42551C46.3269 7.09171 49.4034 8.7361 51.818 11.1507C54.2327 13.5654 55.877 16.6418 56.5432 19.991C57.2094 23.3402 56.8675 26.8118 55.5607 29.9667C54.2539 33.1215 52.041 35.8181 49.2016 37.7152C46.3623 39.6124 43.0242 40.625 39.6094 40.625H19.2969C16.3339 40.625 13.4923 39.448 11.3972 37.3528C9.30203 35.2577 8.125 32.4161 8.125 29.4531C8.125 26.4902 9.30203 23.6486 11.3972 21.5534C13.4923 19.4583 16.3339 18.2813 19.2969 18.2813C20.5331 18.2749 21.7613 18.481 22.9277 18.8906" fill="#FAFAFC"/>
<path d="M22.3438 23.3594C22.3438 19.9446 23.3564 16.6064 25.2535 13.7671C27.1507 10.9278 29.8472 8.71482 33.0021 7.40803C36.157 6.10123 39.6285 5.75931 42.9777 6.42551C46.3269 7.09171 49.4034 8.7361 51.818 11.1507C54.2327 13.5654 55.877 16.6418 56.5432 19.991C57.2094 23.3402 56.8675 26.8118 55.5607 29.9667C54.2539 33.1215 52.041 35.8181 49.2016 37.7152C46.3623 39.6124 43.0242 40.625 39.6094 40.625H19.2969C16.3339 40.625 13.4923 39.448 11.3972 37.3528C9.30203 35.2577 8.125 32.4161 8.125 29.4531C8.125 26.4902 9.30203 23.6486 11.3972 21.5534C13.4923 19.4583 16.3339 18.2813 19.2969 18.2813C20.5331 18.2749 21.7613 18.481 22.9277 18.8906" stroke="#FAFAFC" stroke-width="6.09375" stroke-linecap="round" stroke-linejoin="round"/>
</svg>
